<svg xmlns="http://www.w3.org/2000/svg" width="21" height="21" viewBox="0 0 21 21">
  <metadata><?xpacket begin="﻿" id="W5M0MpCehiHzreSzNTczkc9d"?>
<x:xmpmeta xmlns:x="adobe:ns:meta/" x:xmptk="Adobe XMP Core 5.6-c140 79.160451, 2017/05/06-01:08:21        ">
   <rdf:RDF xmlns:rdf="http://www.w3.org/1999/02/22-rdf-syntax-ns#">
      <rdf:Description rdf:about=""/>
   </rdf:RDF>
</x:xmpmeta>





















<?xpacket end="w"?></metadata>
  <path id="Forma_1" data-name="Forma 1" class="cls-1" d="M971.535,321.614l-3.244-3.251a1.689,1.689,0,0,0-2.384.045l-1.634,1.638-0.322-.18a15.327,15.327,0,0,1-6.779-6.795c-0.06-.11-0.118-0.215-0.176-0.316l1.1-1.1,0.539-.541a1.7,1.7,0,0,0,.044-2.39l-3.244-3.251a1.685,1.685,0,0,0-2.384.046l-0.914.921,0.025,0.025a5.275,5.275,0,0,0-.753,1.332,5.5,5.5,0,0,0-.335,1.35c-0.428,3.558,1.194,6.81,5.6,11.223,6.086,6.1,10.991,5.639,11.2,5.617a5.5,5.5,0,0,0,1.352-.341,5.265,5.265,0,0,0,1.324-.752l0.019,0.018,0.926-.908A1.7,1.7,0,0,0,971.535,321.614Z" transform="translate(-951 -305)"/>
</svg>
