<svg xmlns="http://www.w3.org/2000/svg" width="14" height="13" viewBox="0 0 14 13">
  <metadata><?xpacket begin="﻿" id="W5M0MpCehiHzreSzNTczkc9d"?>
<x:xmpmeta xmlns:x="adobe:ns:meta/" x:xmptk="Adobe XMP Core 5.6-c140 79.160451, 2017/05/06-01:08:21        ">
   <rdf:RDF xmlns:rdf="http://www.w3.org/1999/02/22-rdf-syntax-ns#">
      <rdf:Description rdf:about=""/>
   </rdf:RDF>
</x:xmpmeta>
                                                                                                    
                                                                                                    
                                                                                                    
                                                                                                    
                                                                                                    
                                                                                                    
                                                                                                    
                                                                                                    
                                                                                                    
                                                                                                    
                                                                                                    
                                                                                                    
                                                                                                    
                                                                                                    
                                                                                                    
                                                                                                    
                                                                                                    
                                                                                                    
                                                                                                    
                                                                                                    
                           
<?xpacket end="w"?></metadata>
<defs>
    <style>
      .cls-1 {
        fill: #092c37;
        fill-rule: evenodd;
      }
    </style>
  </defs>
  <path id="Forma_1" data-name="Forma 1" class="cls-1" d="M436.852,5917.31l-4-4.15a0.467,0.467,0,0,0-.7,0,0.493,0.493,0,0,0-.148.36v2.08h-1.75q-5.571,0-6.836,3.27a7.7,7.7,0,0,0-.414,2.71,10.03,10.03,0,0,0,.992,3.66c0.016,0.04.043,0.11,0.082,0.2s0.074,0.17.106,0.24a1,1,0,0,0,.1.18,0.274,0.274,0,0,0,.219.14,0.238,0.238,0,0,0,.184-0.08,0.326,0.326,0,0,0,.066-0.21,1.751,1.751,0,0,0-.02-0.21,1.879,1.879,0,0,1-.019-0.19c-0.026-.37-0.039-0.7-0.039-1a7.142,7.142,0,0,1,.136-1.47,4.723,4.723,0,0,1,.379-1.13,2.916,2.916,0,0,1,.625-0.82,3.456,3.456,0,0,1,.825-0.56,4.437,4.437,0,0,1,1.039-.35,9.782,9.782,0,0,1,1.2-.17c0.4-.03.86-0.05,1.371-0.05H432v2.08a0.533,0.533,0,0,0,.148.37,0.488,0.488,0,0,0,.7,0l4-4.16A0.537,0.537,0,0,0,436.852,5917.31Z" transform="translate(-423 -5913)"/>
</svg>
