<svg xmlns="http://www.w3.org/2000/svg" width="26" height="26" viewBox="0 0 26 26">
  <metadata><?xpacket begin="﻿" id="W5M0MpCehiHzreSzNTczkc9d"?>
<x:xmpmeta xmlns:x="adobe:ns:meta/" x:xmptk="Adobe XMP Core 5.6-c140 79.160451, 2017/05/06-01:08:21        ">
   <rdf:RDF xmlns:rdf="http://www.w3.org/1999/02/22-rdf-syntax-ns#">
      <rdf:Description rdf:about=""/>
   </rdf:RDF>
</x:xmpmeta>
                                                                                                    
                                                                                                    
                                                                                                    
                                                                                                    
                                                                                                    
                                                                                                    
                                                                                                    
                                                                                                    
                                                                                                    
                                                                                                    
                                                                                                    
                                                                                                    
                                                                                                    
                                                                                                    
                                                                                                    
                                                                                                    
                                                                                                    
                                                                                                    
                                                                                                    
                                                                                                    
                           
<?xpacket end="w"?></metadata>
<defs>
    <style>
      .cls-1 {
        fill: #9ce7e8;
        fill-rule: evenodd;
      }
    </style>
  </defs>
  <path id="Forma_1" data-name="Forma 1" class="cls-1" d="M403,3114a13,13,0,1,0,13,13A13,13,0,0,0,403,3114Zm6.594,14.41a23.047,23.047,0,0,1,1.791,1.8,4.983,4.983,0,0,1,.641.92,0.657,0.657,0,0,1-.405,1.03h-2.663a2.05,2.05,0,0,1-1.7-.69c-0.368-.37-0.71-0.77-1.065-1.16a2.515,2.515,0,0,0-.479-0.43,0.559,0.559,0,0,0-.886.22,2.754,2.754,0,0,0-.281,1.24,0.706,0.706,0,0,1-.849.82,6.753,6.753,0,0,1-3.811-.82,8.384,8.384,0,0,1-2.564-2.4,32.078,32.078,0,0,1-3.376-6.02c-0.213-.47-0.057-0.72.466-0.73q1.3-.03,2.608,0a0.75,0.75,0,0,1,.724.54,16.246,16.246,0,0,0,1.767,3.27,2.808,2.808,0,0,0,.668.74,0.406,0.406,0,0,0,.689-0.21,2.156,2.156,0,0,0,.153-0.68,10.274,10.274,0,0,0-.042-2.41,1.01,1.01,0,0,0-.855-0.92c-0.254-.05-0.217-0.14-0.094-0.29a0.957,0.957,0,0,1,.818-0.4h3.009a0.711,0.711,0,0,1,.645.78l0,3.34a0.98,0.98,0,0,0,.425.86,0.589,0.589,0,0,0,.6-0.3,10.4,10.4,0,0,0,1.7-2.6c0.2-.41.378-0.84,0.549-1.27a0.662,0.662,0,0,1,.68-0.47l2.9,0.01a2.2,2.2,0,0,1,.257.01,0.5,0.5,0,0,1,.471.77,7.141,7.141,0,0,1-1.152,2c-0.484.67-1,1.32-1.479,1.99A0.91,0.91,0,0,0,409.594,3128.41Z" transform="translate(-390 -3114)"/>
</svg>
