<svg xmlns="http://www.w3.org/2000/svg" width="61" height="46" viewBox="0 0 61 46">
  <metadata><?xpacket begin="﻿" id="W5M0MpCehiHzreSzNTczkc9d"?>
<x:xmpmeta xmlns:x="adobe:ns:meta/" x:xmptk="Adobe XMP Core 5.6-c140 79.160451, 2017/05/06-01:08:21        ">
   <rdf:RDF xmlns:rdf="http://www.w3.org/1999/02/22-rdf-syntax-ns#">
      <rdf:Description rdf:about=""/>
   </rdf:RDF>
</x:xmpmeta>
                                                                                                    
                                                                                                    
                                                                                                    
                                                                                                    
                                                                                                    
                                                                                                    
                                                                                                    
                                                                                                    
                                                                                                    
                                                                                                    
                                                                                                    
                                                                                                    
                                                                                                    
                                                                                                    
                                                                                                    
                                                                                                    
                                                                                                    
                                                                                                    
                                                                                                    
                                                                                                    
                           
<?xpacket end="w"?></metadata>
<defs>
    <style>
      .cls-1 {
        fill: #8dd6d7;
        fill-rule: evenodd;
      }
    </style>
  </defs>
  <path id="handshake-2" class="cls-1" d="M1373.92,2618.96a30.322,30.322,0,0,0-6.88,2.36c-2.76-2.5-8.97-8.16-11.18-10.38-2.52-2.53-5.07-2.78-7.86-.5-2.01,1.62-5.13,3.69-7.55,2.8,3.46-2.44,6.58-6,9.38-9.19,0.8-.9,1.34-1.51,3.82-0.23l1.72,0.91c4.38,2.32,7.8,4.16,13.04,3.92,1.58-.06,3.78-0.18,5.51-0.27v10.58Zm-8.64,10.78a2.349,2.349,0,0,1-3.15-.38l-6.35-5.47a0.518,0.518,0,0,0-.67.79l6.18,5.34a2.062,2.062,0,0,1-.22,3.01,2.331,2.331,0,0,1-3.16-.38l-4.87-4.29a0.525,0.525,0,0,0-.69.79l4.75,4.2a2.03,2.03,0,0,1-.24,2.98,2.3,2.3,0,0,1-3.13-.35l-0.93-.84a5.879,5.879,0,0,0-4.89-6.43,5.939,5.939,0,0,0-4.35-3.27,5.909,5.909,0,0,0-4.35-3.27,6.045,6.045,0,0,0-9.28-1.99,44.526,44.526,0,0,0-6.85-1.46v-10.5h2.98a19.208,19.208,0,0,0,8.75-2.35c2.76-1.32,4.09-1.93,6.56-.12a26.067,26.067,0,0,1-5,4.06,3.7,3.7,0,0,0-1.71,4.26c0.6,2.23,3.21,4.49,7.03,4.49,5.04,0,7.46-3.05,10.01-4.51,3.79,3.67,9.98,9.31,13.9,12.85A2.032,2.032,0,0,1,1365.28,2629.74Zm-12.63,9.88a2.143,2.143,0,0,1-1.35.46,2.458,2.458,0,0,1-1.02-.24l1.16-1.43a6.115,6.115,0,0,0,1.12-2.07l0.31,0.28A2.051,2.051,0,0,1,1352.65,2639.62Zm-4.17-3.63-1.99,2.46a2.37,2.37,0,0,1-3.22.46,2.122,2.122,0,0,1-.26-3.09l1.99-2.46a2.379,2.379,0,0,1,3.22-.46A2.122,2.122,0,0,1,1348.48,2635.99Zm-9.56-.36a2.132,2.132,0,0,1-.26-3.1l1.98-2.44a2.379,2.379,0,0,1,3.22-.46,2.122,2.122,0,0,1,.26,3.09l-1.98,2.45A2.379,2.379,0,0,1,1338.92,2635.63Zm-4.35-3.28a2.09,2.09,0,0,1-.29-3.06l2.01-2.48a2.379,2.379,0,0,1,3.22-.46,2.122,2.122,0,0,1,.26,3.09l-2.01,2.48A2.336,2.336,0,0,1,1334.57,2632.35Zm-4.36-3.27a2.133,2.133,0,0,1-.26-3.1l1.99-2.45a2.366,2.366,0,0,1,3.21-.46,2.124,2.124,0,0,1,.26,3.1l-1.98,2.44A2.382,2.382,0,0,1,1330.21,2629.08Zm37.41-25.52c-3.55,0-5.93-1.26-9.88-3.35-2.17-1.14-3.9-2.21-6.4-2.21-3.24,0-4.44,1.68-6.49,4-5.21-4.08-8.93-2.32-12.22-.75a14.594,14.594,0,0,1-6.57,1.86H1318v20.21a57.707,57.707,0,0,1,8.35,1.19,32.773,32.773,0,0,0,12.87,15.3,6.008,6.008,0,0,0,8.1,2.74,6.276,6.276,0,0,0,3.98,1.45,147.276,147.276,0,0,0,13.87-10.02,5.888,5.888,0,0,0,4.29-8.12c2.79-1.38,5.65-1.94,9.54-2.81v-20.1C1376.56,2603.1,1370.09,2603.51,1367.62,2603.56Z" transform="translate(-1318 -2598)"/>
</svg>
