<svg xmlns="http://www.w3.org/2000/svg" width="58" height="39" viewBox="0 0 58 39">
  <metadata><?xpacket begin="﻿" id="W5M0MpCehiHzreSzNTczkc9d"?>
<x:xmpmeta xmlns:x="adobe:ns:meta/" x:xmptk="Adobe XMP Core 5.6-c140 79.160451, 2017/05/06-01:08:21        ">
   <rdf:RDF xmlns:rdf="http://www.w3.org/1999/02/22-rdf-syntax-ns#">
      <rdf:Description rdf:about=""/>
   </rdf:RDF>
</x:xmpmeta>
                                                                                                    
                                                                                                    
                                                                                                    
                                                                                                    
                                                                                                    
                                                                                                    
                                                                                                    
                                                                                                    
                                                                                                    
                                                                                                    
                                                                                                    
                                                                                                    
                                                                                                    
                                                                                                    
                                                                                                    
                                                                                                    
                                                                                                    
                                                                                                    
                                                                                                    
                                                                                                    
                           
<?xpacket end="w"?></metadata>
<defs>
    <style>
      .cls-1 {
        fill: #8dd6d7;
        fill-rule: evenodd;
      }
    </style>
  </defs>
  <path id="credit-card-13" class="cls-1" d="M554.834,2604.44h3.083v1.51c0.258,0.13.509,0.25,0.774,0.39,1.291,0.63,2.661,1.31,4.059,1.99v-3.89h10.875a1.21,1.21,0,0,1,1.208,1.22v8.62c0.353,0.17.718,0.35,1.053,0.51l0.848-.41,0.512-.24h0v-8.48a3.644,3.644,0,0,0-3.625-3.66H554.292a3.572,3.572,0,0,0-2.442.97C552.67,2603.37,553.686,2603.87,554.834,2604.44Zm21.992,24.15c-0.142-.07-0.863-0.43-1.993-0.98v9.73a1.21,1.21,0,0,1-1.208,1.22H562.75v-16.89c-1.572-.77-3.192-1.57-4.833-2.38v19.27h-3.625a1.211,1.211,0,0,1-1.209-1.22v-20.42c-0.814-.4-1.621-0.8-2.416-1.19v21.61a3.643,3.643,0,0,0,3.625,3.66h19.333a3.644,3.644,0,0,0,3.625-3.66v-8.55Zm-11.659-19.07c0.806,0.4,1.614.8,2.416,1.19v-3.84h-2.416v2.65Zm2.416,26.6v-9.75h-2.416v9.75h2.416Zm4.834-4.87H570v4.87h2.417v-4.87Zm15.333,4.83c2.605,1.27,5.581.51,6.635-1.71s-0.21-5.05-2.816-6.32-5.583-.51-6.636,1.7S585.142,2634.8,587.75,2636.08Zm-2.9-22.85c1.049,2.22,4.024,2.99,6.633,1.72s3.879-4.1,2.832-6.31-4.024-2.99-6.633-1.72S583.8,2611.02,584.848,2613.23ZM541,2607.74s3.645-5.05,7.605-3.11c2.432,1.19,18.859,9.29,27.275,13.41l2.114-1.02c1.823-.89,3.017-1.2,2.464-3.49-1.38-5.75,3.594-11.53,9.79-11.53a8.356,8.356,0,0,1,8.675,8.24,9.886,9.886,0,0,1-5.6,8.6c-3.485,1.77-5.93.39-9.393,2.1-0.346.16-.709,0.34-1.082,0.52,0.41,0.21.806,0.4,1.185,0.59,3.459,1.71,5.906.34,9.388,2.12a9.889,9.889,0,0,1,5.583,8.6,8.349,8.349,0,0,1-8.672,8.23c-6.157,0-11.2-5.74-9.785-11.55,0.557-2.29-.637-2.61-2.455-3.5C577.136,2625.49,551.1,2612.68,541,2607.74Zm7.25,30.68c-3.921,1.8-7.25-3.16-7.25-3.16,1.988-.97,4.339-2.25,7.25-3.68v6.84Z" transform="translate(-541 -2602)"/>
</svg>
