<svg xmlns="http://www.w3.org/2000/svg" width="15" height="13" viewBox="0 0 15 13">
  <metadata><?xpacket begin="﻿" id="W5M0MpCehiHzreSzNTczkc9d"?>
<x:xmpmeta xmlns:x="adobe:ns:meta/" x:xmptk="Adobe XMP Core 5.6-c140 79.160451, 2017/05/06-01:08:21        ">
   <rdf:RDF xmlns:rdf="http://www.w3.org/1999/02/22-rdf-syntax-ns#">
      <rdf:Description rdf:about=""/>
   </rdf:RDF>
</x:xmpmeta>
                                                                                                    
                                                                                                    
                                                                                                    
                                                                                                    
                                                                                                    
                                                                                                    
                                                                                                    
                                                                                                    
                                                                                                    
                                                                                                    
                                                                                                    
                                                                                                    
                                                                                                    
                                                                                                    
                                                                                                    
                                                                                                    
                                                                                                    
                                                                                                    
                                                                                                    
                                                                                                    
                           
<?xpacket end="w"?></metadata>
<defs>
    <style>
      .cls-1 {
        fill: #092c37;
        fill-rule: evenodd;
      }
    </style>
  </defs>
  <path id="Forma_1" data-name="Forma 1" class="cls-1" d="M427.25,5837h0c3.452,0,6.25,2.21,6.25,4.93s-2.8,4.93-6.25,4.93a7.778,7.778,0,0,1-.974-0.06,6.033,6.033,0,0,1-4.443,1.57v-0.31a2.375,2.375,0,0,0,1.511-1.96,2.291,2.291,0,0,0-.027-0.34,4.608,4.608,0,0,1-2.317-3.83C421,5839.21,423.8,5837,427.25,5837Zm6.719,11.05a1.922,1.922,0,0,0,1.2,1.68V5850a5.046,5.046,0,0,1-3.739-1.35,5.876,5.876,0,0,1-.845.05,6.419,6.419,0,0,1-3.3-.87,8.187,8.187,0,0,0,5.011-1.66,6.092,6.092,0,0,0,1.594-1.87,5,5,0,0,0,.6-2.37c0-.13,0-0.26-0.016-0.39a3.782,3.782,0,0,1,1.527,2.94,3.948,3.948,0,0,1-2.008,3.28A1.889,1.889,0,0,0,433.969,5848.05Z" transform="translate(-421 -5837)"/>
</svg>
