<svg xmlns="http://www.w3.org/2000/svg" width="59" height="55" viewBox="0 0 59 55">
  <metadata><?xpacket begin="﻿" id="W5M0MpCehiHzreSzNTczkc9d"?>
<x:xmpmeta xmlns:x="adobe:ns:meta/" x:xmptk="Adobe XMP Core 5.6-c140 79.160451, 2017/05/06-01:08:21        ">
   <rdf:RDF xmlns:rdf="http://www.w3.org/1999/02/22-rdf-syntax-ns#">
      <rdf:Description rdf:about=""/>
   </rdf:RDF>
</x:xmpmeta>
                                                                                                    
                                                                                                    
                                                                                                    
                                                                                                    
                                                                                                    
                                                                                                    
                                                                                                    
                                                                                                    
                                                                                                    
                                                                                                    
                                                                                                    
                                                                                                    
                                                                                                    
                                                                                                    
                                                                                                    
                                                                                                    
                                                                                                    
                                                                                                    
                                                                                                    
                                                                                                    
                           
<?xpacket end="w"?></metadata>
<defs>
    <style>
      .cls-1 {
        fill: #9ce7e8;
        fill-rule: evenodd;
      }
    </style>
  </defs>
  <path id="Forma_1" data-name="Forma 1" class="cls-1" d="M1116.72,4236c-9.83,0-20.28,3.21-20.28,9.17v7.33a1.84,1.84,0,0,0,3.68,0v-1.91c3.92,2.45,10.38,3.74,16.6,3.74s12.68-1.29,16.59-3.74v1.91c0,1.79-4.53,4.65-13.06,5.36a1.833,1.833,0,0,0,.15,3.66,0.808,0.808,0,0,0,.16-0.01c4.8-.4,9.58-1.63,12.75-3.64v1.96c0,1.57-3.34,3.82-9.54,4.91a1.834,1.834,0,0,0,.32,3.64,1.655,1.655,0,0,0,.32-0.03,24.642,24.642,0,0,0,8.9-3.1v1.92c0,1.56-3.34,3.81-9.54,4.9a1.834,1.834,0,0,0,.32,3.64,1.655,1.655,0,0,0,.32-0.03,24.841,24.841,0,0,0,8.9-3.09v1.91c0,1.57-3.34,3.82-9.54,4.91a1.822,1.822,0,0,0-1.49,2.12,1.84,1.84,0,0,0,1.81,1.51,1.123,1.123,0,0,0,.32-0.03,24.65,24.65,0,0,0,8.9-3.09v1.91c0,1.8-4.53,4.66-13.06,5.36a1.833,1.833,0,0,0,.15,3.66h0.16c8.18-.69,16.44-3.73,16.44-9.02v-36.66C1137,4239.21,1126.55,4236,1116.72,4236Zm0,14.67c-10.13,0-16.6-3.26-16.6-5.5s6.47-5.5,16.6-5.5,16.59,3.26,16.59,5.5S1126.85,4250.67,1116.72,4250.67Zm-18.44,7.33c-9.83,0-20.28,3.21-20.28,9.17v14.66c0,5.96,10.45,9.17,20.28,9.17s20.28-3.21,20.28-9.17v-14.66C1118.56,4261.21,1108.11,4258,1098.28,4258Zm16.59,23.83c0,2.24-6.46,5.5-16.59,5.5s-16.59-3.26-16.59-5.5v-1.91c3.91,2.46,10.37,3.75,16.59,3.75s12.68-1.29,16.59-3.75v1.91Zm0-7.33c0,2.24-6.46,5.5-16.59,5.5s-16.59-3.26-16.59-5.5v-1.91c3.91,2.45,10.37,3.74,16.59,3.74s12.68-1.29,16.59-3.74v1.91Zm-16.59-1.83c-10.13,0-16.59-3.26-16.59-5.5s6.46-5.5,16.59-5.5,16.59,3.26,16.59,5.5S1108.41,4272.67,1098.28,4272.67Z" transform="translate(-1078 -4236)"/>
</svg>
