<svg xmlns="http://www.w3.org/2000/svg" width="51" height="64" viewBox="0 0 51 64">
  <metadata><?xpacket begin="﻿" id="W5M0MpCehiHzreSzNTczkc9d"?>
<x:xmpmeta xmlns:x="adobe:ns:meta/" x:xmptk="Adobe XMP Core 5.6-c140 79.160451, 2017/05/06-01:08:21        ">
   <rdf:RDF xmlns:rdf="http://www.w3.org/1999/02/22-rdf-syntax-ns#">
      <rdf:Description rdf:about=""/>
   </rdf:RDF>
</x:xmpmeta>
                                                                                                    
                                                                                                    
                                                                                                    
                                                                                                    
                                                                                                    
                                                                                                    
                                                                                                    
                                                                                                    
                                                                                                    
                                                                                                    
                                                                                                    
                                                                                                    
                                                                                                    
                                                                                                    
                                                                                                    
                                                                                                    
                                                                                                    
                                                                                                    
                                                                                                    
                                                                                                    
                           
<?xpacket end="w"?></metadata>
<defs>
    <style>
      .cls-1 {
        fill: #9ce7e8;
        fill-rule: evenodd;
      }
    </style>
  </defs>
  <path id="Forma_1" data-name="Forma 1" class="cls-1" d="M547.775,4267.2l-0.079-.03-7.03-1.99-4.99-4.75v-1.27a13.093,13.093,0,0,0,3.893-9.29v-7.75a13.157,13.157,0,0,0-26.313,0v7.75a13.093,13.093,0,0,0,3.892,9.29v1.27l-4.958,4.74-6.9,2.01a0.167,0.167,0,0,0-.067.02,6.18,6.18,0,0,0-4.055,7.28l3.326,17a1.878,1.878,0,0,0,1.844,1.52,0.844,0.844,0,0,0,.158-0.01,0.684,0.684,0,0,0,.143.01h39.836a1.883,1.883,0,0,0,1.843-1.5l3.508-17.01A6.175,6.175,0,0,0,547.775,4267.2Zm-10.618-.19-5.381,8.05-2.933-2.93,5.322-7.99Zm-10.732-34.26a4.7,4.7,0,1,1,0,7.5h-9.218A9.419,9.419,0,0,1,526.425,4232.75Zm-9.432,17.12V4244h9.432a13.238,13.238,0,0,0,9.216-3.76,9.367,9.367,0,0,1,.19,1.88v7.75A9.419,9.419,0,0,1,516.993,4249.87Zm1.691,14.27,5.322,7.99-2.933,2.93-5.38-8.05Zm5.859,25.11H507.892c-0.014-.07-3.041-15.55-3.059-15.62a2.429,2.429,0,0,1,1.553-2.87l6.106-1.77,6.723,10.05a1.886,1.886,0,0,0,2.9.28l2.432-2.42v12.35h0Zm-2.631-27.04a13.283,13.283,0,0,0,9.025,0l-4.512,6.77Zm26.237,11.49-3.205,15.55H528.281V4276.9l2.457,2.42a1.886,1.886,0,0,0,2.9-.28l6.724-10.05,6.261,1.78A2.411,2.411,0,0,1,548.149,4273.7Z" transform="translate(-501 -4229)"/>
</svg>
