<svg xmlns="http://www.w3.org/2000/svg" width="55.969" height="67.03" viewBox="0 0 55.969 67.03">
  <metadata><?xpacket begin="﻿" id="W5M0MpCehiHzreSzNTczkc9d"?>
<x:xmpmeta xmlns:x="adobe:ns:meta/" x:xmptk="Adobe XMP Core 5.6-c140 79.160451, 2017/05/06-01:08:21        ">
   <rdf:RDF xmlns:rdf="http://www.w3.org/1999/02/22-rdf-syntax-ns#">
      <rdf:Description rdf:about=""/>
   </rdf:RDF>
</x:xmpmeta>
                                                                                                    
                                                                                                    
                                                                                                    
                                                                                                    
                                                                                                    
                                                                                                    
                                                                                                    
                                                                                                    
                                                                                                    
                                                                                                    
                                                                                                    
                                                                                                    
                                                                                                    
                                                                                                    
                                                                                                    
                                                                                                    
                                                                                                    
                                                                                                    
                                                                                                    
                                                                                                    
                           
<?xpacket end="w"?></metadata>
<defs>
    <style>
      .cls-1 {
        fill: #9ce7e8;
        fill-rule: evenodd;
      }
    </style>
  </defs>
  <path id="Forma_1" data-name="Forma 1" class="cls-1" d="M793.826,4249.77l22.551-16.87,22.552,16.87a1.749,1.749,0,0,0,1.061.35,1.78,1.78,0,0,0,1.41-.69,1.74,1.74,0,0,0-.347-2.45l-23.614-17.67a1.776,1.776,0,0,0-2.124,0L791.7,4246.98a1.739,1.739,0,0,0-.346,2.45A1.777,1.777,0,0,0,793.826,4249.77Zm52.618,39.8-4.689-4.66v-29.08a1.748,1.748,0,0,0-.7-1.4l-23.615-17.67a1.776,1.776,0,0,0-2.124,0L791.7,4254.43a1.749,1.749,0,0,0-.7,1.4v29.74a1.761,1.761,0,0,0,1.764,1.75h39.475l8.237,8.17a1.781,1.781,0,0,0,2.5,0l3.474-3.45A1.734,1.734,0,0,0,846.444,4289.57Zm-51.917-32.87,21.85-16.35,21.85,16.35v24.71l-7.47-7.41a14.246,14.246,0,0,0-2.538-16.83,14.513,14.513,0,0,0-20.4,0,14.248,14.248,0,0,0,0,20.24,14.536,14.536,0,0,0,16.975,2.52l3.918,3.89H794.527V4256.7Zm23.491,21.4a10.882,10.882,0,0,1-7.706-3.17,10.764,10.764,0,0,1,0-15.29,10.976,10.976,0,0,1,15.412,0,10.764,10.764,0,0,1,0,15.29A10.883,10.883,0,0,1,818.018,4278.1Zm9.7-.22c0.17-.15.338-0.31,0.5-0.47s0.322-.33.477-0.5L842.7,4290.8l-0.98.98Zm-2.948-6.37a1.781,1.781,0,0,0-2.5,0,6.056,6.056,0,0,1-8.512,0,1.78,1.78,0,0,0-2.494,0,1.734,1.734,0,0,0,0,2.47,9.61,9.61,0,0,0,13.5,0A1.734,1.734,0,0,0,824.769,4271.51Z" transform="translate(-791 -4228.97)"/>
</svg>
