<svg xmlns="http://www.w3.org/2000/svg" width="48" height="49" viewBox="0 0 48 49">
  <metadata><?xpacket begin="﻿" id="W5M0MpCehiHzreSzNTczkc9d"?>
<x:xmpmeta xmlns:x="adobe:ns:meta/" x:xmptk="Adobe XMP Core 5.6-c140 79.160451, 2017/05/06-01:08:21        ">
   <rdf:RDF xmlns:rdf="http://www.w3.org/1999/02/22-rdf-syntax-ns#">
      <rdf:Description rdf:about=""/>
   </rdf:RDF>
</x:xmpmeta>
                                                                                                    
                                                                                                    
                                                                                                    
                                                                                                    
                                                                                                    
                                                                                                    
                                                                                                    
                                                                                                    
                                                                                                    
                                                                                                    
                                                                                                    
                                                                                                    
                                                                                                    
                                                                                                    
                                                                                                    
                                                                                                    
                                                                                                    
                                                                                                    
                                                                                                    
                                                                                                    
                           
<?xpacket end="w"?></metadata>
<defs>
    <style>
      .cls-1 {
        fill: #9ce7e8;
        fill-rule: evenodd;
      }
    </style>
  </defs>
  <path id="Forma_1" data-name="Forma 1" class="cls-1" d="M1414.1,4263.98v-22.03h-33.13v41.1h15.24a1.975,1.975,0,1,1,0,3.95h-17.22a1.985,1.985,0,0,1-1.99-1.97v-45.06a1.985,1.985,0,0,1,1.99-1.97h37.1a1.982,1.982,0,0,1,1.98,1.97v24.01A1.985,1.985,0,0,1,1414.1,4263.98Zm10.23,4.8a1.993,1.993,0,0,0-2.81.17l-10.9,12.03-5.46-5.23a2.011,2.011,0,0,0-2.82.07,1.956,1.956,0,0,0,.07,2.79l6.95,6.65a1.975,1.975,0,0,0,1.39.56h0.07a2.038,2.038,0,0,0,1.39-.66l12.26-13.55A1.977,1.977,0,0,0,1424.33,4268.78Zm-17.52-19.27h-17.89a1.975,1.975,0,1,0,0,3.95h17.89A1.975,1.975,0,1,0,1406.81,4249.51Zm1.99,12.82a1.985,1.985,0,0,0-1.99-1.97h-17.89a1.975,1.975,0,1,0,0,3.95h17.89A1.987,1.987,0,0,0,1408.8,4262.33Zm-19.88,8.56a1.97,1.97,0,1,0,0,3.94h5.3a1.97,1.97,0,1,0,0-3.94h-5.3Z" transform="translate(-1377 -4238)"/>
</svg>
