<svg xmlns="http://www.w3.org/2000/svg" width="26" height="26" viewBox="0 0 26 26">
  <defs>
    <style>
      .cls-1 {
        fill: #9ce7e8;
        fill-rule: evenodd;
      }
    </style>
  </defs>
  <path id="Forma_1" data-name="Forma 1" class="cls-1" d="M476.012,3125.77a2.24,2.24,0,1,0-2.254-2.21A2.221,2.221,0,0,0,476.012,3125.77ZM476,3115a13,13,0,1,0,13,13A13,13,0,0,0,476,3115Zm0.019,3.95a4.58,4.58,0,1,1-4.594,4.57A4.584,4.584,0,0,1,476.019,3118.95Zm5.128,10.96a5.566,5.566,0,0,1-1.982,1.28,9.44,9.44,0,0,1-2.251.51c0.117,0.12.171,0.18,0.244,0.26,1.041,1.04,2.088,2.08,3.126,3.13a1.039,1.039,0,0,1,.232,1.22,1.21,1.21,0,0,1-1.157.72,1.1,1.1,0,0,1-.732-0.37c-0.786-.79-1.587-1.57-2.357-2.37-0.225-.24-0.332-0.19-0.53.01-0.791.81-1.6,1.62-2.4,2.41a1,1,0,0,1-1.216.22,1.228,1.228,0,0,1-.711-1.13,1.128,1.128,0,0,1,.381-0.76q1.548-1.545,3.088-3.1c0.068-.06.131-0.14,0.231-0.24a7.036,7.036,0,0,1-3.75-1.34c-0.135-.11-0.273-0.21-0.4-0.33a1.059,1.059,0,0,1-.147-1.51,1.075,1.075,0,0,1,1.419-.32,3.152,3.152,0,0,1,.311.18,6.146,6.146,0,0,0,6.815.07,1.86,1.86,0,0,1,.664-0.35,1.053,1.053,0,0,1,1.193.48A1.011,1.011,0,0,1,481.147,3129.91Z" transform="translate(-463 -3115)"/>
</svg>
