<?xml version="1.0" encoding="utf-8"?>
<!-- Generator: Adobe Illustrator 16.0.0, SVG Export Plug-In . SVG Version: 6.00 Build 0)  -->
<!DOCTYPE svg PUBLIC "-//W3C//DTD SVG 1.1//EN" "http://www.w3.org/Graphics/SVG/1.1/DTD/svg11.dtd">
<svg version="1.1" xmlns="http://www.w3.org/2000/svg" xmlns:xlink="http://www.w3.org/1999/xlink" x="0px" y="0px"
	 width="596.667px" height="177.333px" viewBox="0 0 596.667 177.333" enable-background="new 0 0 596.667 177.333"
	 xml:space="preserve">
<g id="_x31_">
	<g>
		<g>
			<g>
				<polygon fill-rule="evenodd" clip-rule="evenodd" fill="#A9D9DC" points="88.905,28.598 120.068,28.708 120.057,30.702 
					88.893,30.592 				"/>
				<polygon fill-rule="evenodd" clip-rule="evenodd" fill="#A9D9DC" points="88.905,19.221 120.068,19.331 120.057,21.325 
					88.893,21.215 				"/>
				<polygon fill-rule="evenodd" clip-rule="evenodd" fill="#A9D9DC" points="88.905,98.37 120.068,98.479 120.057,100.473 
					88.893,100.363 				"/>
				<polygon fill-rule="evenodd" clip-rule="evenodd" fill="#A9D9DC" points="124.775,98.37 145.003,98.479 144.995,100.473 
					124.767,100.363 				"/>
				<polygon fill-rule="evenodd" clip-rule="evenodd" fill="#A9D9DC" points="88.905,63.484 120.068,63.594 120.057,65.587 
					88.893,65.478 				"/>
				<polygon fill-rule="evenodd" clip-rule="evenodd" fill="#A9D9DC" points="124.775,63.484 145.003,63.594 144.995,65.587 
					124.767,65.478 				"/>
				<polygon fill-rule="evenodd" clip-rule="evenodd" fill="#A9D9DC" points="88.905,133.255 120.068,133.366 120.057,135.359 
					88.893,135.25 				"/>
				<polygon fill-rule="evenodd" clip-rule="evenodd" fill="#A9D9DC" points="124.775,133.255 145.003,133.366 144.995,135.359 
					124.767,135.25 				"/>
				<polygon fill-rule="evenodd" clip-rule="evenodd" fill="#A9D9DC" points="88.905,46.041 120.068,46.151 120.057,48.145 
					88.893,48.035 				"/>
				<polygon fill-rule="evenodd" clip-rule="evenodd" fill="#A9D9DC" points="88.905,115.813 120.068,115.922 120.057,117.917 
					88.893,117.806 				"/>
				<polygon fill-rule="evenodd" clip-rule="evenodd" fill="#A9D9DC" points="124.775,115.813 145.003,115.922 144.995,117.917 
					124.767,117.806 				"/>
				<polygon fill-rule="evenodd" clip-rule="evenodd" fill="#A9D9DC" points="88.905,80.927 120.068,81.037 120.057,83.031 
					88.893,82.92 				"/>
				<polygon fill-rule="evenodd" clip-rule="evenodd" fill="#A9D9DC" points="124.775,80.927 145.003,81.037 144.995,83.031 
					124.767,82.92 				"/>
				<polygon fill-rule="evenodd" clip-rule="evenodd" fill="#A9D9DC" points="88.905,150.698 120.068,150.808 120.057,152.802 
					88.893,152.692 				"/>
				<polygon fill-rule="evenodd" clip-rule="evenodd" fill="#A9D9DC" points="124.775,150.698 145.003,150.808 144.995,152.802 
					124.767,152.692 				"/>
				<polygon fill-rule="evenodd" clip-rule="evenodd" fill="#A9D9DC" points="88.905,32.959 120.068,33.069 120.057,35.063 
					88.893,34.953 				"/>
				<polygon fill-rule="evenodd" clip-rule="evenodd" fill="#A9D9DC" points="88.905,23.582 120.068,23.691 120.057,25.686 
					88.893,25.576 				"/>
				<polygon fill-rule="evenodd" clip-rule="evenodd" fill="#A9D9DC" points="88.905,102.73 120.068,102.84 120.057,104.834 
					88.893,104.724 				"/>
				<polygon fill-rule="evenodd" clip-rule="evenodd" fill="#A9D9DC" points="124.775,102.73 145.003,102.84 144.995,104.834 
					124.767,104.724 				"/>
				<polygon fill-rule="evenodd" clip-rule="evenodd" fill="#A9D9DC" points="88.905,67.845 120.068,67.955 120.057,69.949 
					88.893,69.838 				"/>
				<polygon fill-rule="evenodd" clip-rule="evenodd" fill="#A9D9DC" points="124.775,67.845 145.003,67.955 144.995,69.949 
					124.767,69.838 				"/>
				<polygon fill-rule="evenodd" clip-rule="evenodd" fill="#A9D9DC" points="88.905,137.616 120.068,137.726 120.057,139.72 
					88.893,139.61 				"/>
				<polygon fill-rule="evenodd" clip-rule="evenodd" fill="#A9D9DC" points="124.775,137.616 145.003,137.726 144.995,139.72 
					124.767,139.61 				"/>
				<polygon fill-rule="evenodd" clip-rule="evenodd" fill="#A9D9DC" points="88.905,50.401 120.068,50.512 120.057,52.505 
					88.893,52.396 				"/>
				<polygon fill-rule="evenodd" clip-rule="evenodd" fill="#A9D9DC" points="88.905,120.173 120.068,120.283 120.057,122.277 
					88.893,122.167 				"/>
				<polygon fill-rule="evenodd" clip-rule="evenodd" fill="#A9D9DC" points="124.775,120.173 145.003,120.283 144.995,122.277 
					124.767,122.167 				"/>
				<polygon fill-rule="evenodd" clip-rule="evenodd" fill="#A9D9DC" points="88.905,85.287 120.068,85.397 120.057,87.391 
					88.893,87.281 				"/>
				<polygon fill-rule="evenodd" clip-rule="evenodd" fill="#A9D9DC" points="124.775,85.287 145.003,85.397 144.995,87.391 
					124.767,87.281 				"/>
				<polygon fill-rule="evenodd" clip-rule="evenodd" fill="#A9D9DC" points="88.905,155.059 120.068,155.169 120.057,157.163 
					88.893,157.052 				"/>
				<polygon fill-rule="evenodd" clip-rule="evenodd" fill="#A9D9DC" points="124.775,155.059 145.003,155.169 144.995,157.163 
					124.767,157.052 				"/>
				<polygon fill-rule="evenodd" clip-rule="evenodd" fill="#A9D9DC" points="88.905,37.319 120.068,37.43 120.057,39.423 
					88.893,39.313 				"/>
				<polygon fill-rule="evenodd" clip-rule="evenodd" fill="#A9D9DC" points="88.905,107.091 120.068,107.201 120.057,109.195 
					88.893,109.084 				"/>
				<polygon fill-rule="evenodd" clip-rule="evenodd" fill="#A9D9DC" points="124.775,107.091 145.003,107.201 144.995,109.195 
					124.767,109.084 				"/>
				<polygon fill-rule="evenodd" clip-rule="evenodd" fill="#A9D9DC" points="88.905,72.206 120.068,72.315 120.057,74.309 
					88.893,74.199 				"/>
				<polygon fill-rule="evenodd" clip-rule="evenodd" fill="#A9D9DC" points="124.775,72.206 145.003,72.315 144.995,74.309 
					124.767,74.199 				"/>
				<polygon fill-rule="evenodd" clip-rule="evenodd" fill="#A9D9DC" points="88.905,141.977 120.068,142.086 120.057,144.081 
					88.893,143.97 				"/>
				<polygon fill-rule="evenodd" clip-rule="evenodd" fill="#A9D9DC" points="124.775,141.977 145.003,142.086 144.995,144.081 
					124.767,143.97 				"/>
				<polygon fill-rule="evenodd" clip-rule="evenodd" fill="#A9D9DC" points="88.905,54.762 120.068,54.873 120.057,56.866 
					88.893,56.756 				"/>
				<polygon fill-rule="evenodd" clip-rule="evenodd" fill="#A9D9DC" points="88.905,124.534 120.068,124.644 120.057,126.638 
					88.893,126.528 				"/>
				<polygon fill-rule="evenodd" clip-rule="evenodd" fill="#A9D9DC" points="124.775,124.534 145.003,124.644 144.995,126.638 
					124.767,126.528 				"/>
				<polygon fill-rule="evenodd" clip-rule="evenodd" fill="#A9D9DC" points="88.905,89.648 120.068,89.758 120.057,91.752 
					88.893,91.642 				"/>
				<polygon fill-rule="evenodd" clip-rule="evenodd" fill="#A9D9DC" points="124.775,89.648 145.003,89.758 144.995,91.752 
					124.767,91.642 				"/>
				<polygon fill-rule="evenodd" clip-rule="evenodd" fill="#A9D9DC" points="88.905,159.419 120.068,159.53 120.057,161.523 
					88.893,161.414 				"/>
				<polygon fill-rule="evenodd" clip-rule="evenodd" fill="#A9D9DC" points="124.775,159.419 145.003,159.53 144.995,161.523 
					124.767,161.414 				"/>
				<polygon fill-rule="evenodd" clip-rule="evenodd" fill="#A9D9DC" points="88.905,41.68 120.068,41.791 120.057,43.784 
					88.893,43.674 				"/>
				<polygon fill-rule="evenodd" clip-rule="evenodd" fill="#A9D9DC" points="88.905,111.452 120.068,111.562 120.057,113.556 
					88.893,113.445 				"/>
				<polygon fill-rule="evenodd" clip-rule="evenodd" fill="#A9D9DC" points="124.775,111.452 145.003,111.562 144.995,113.556 
					124.767,113.445 				"/>
				<polygon fill-rule="evenodd" clip-rule="evenodd" fill="#A9D9DC" points="88.905,76.566 120.068,76.676 120.057,78.67 
					88.893,78.56 				"/>
				<polygon fill-rule="evenodd" clip-rule="evenodd" fill="#A9D9DC" points="124.775,76.566 145.003,76.676 144.995,78.67 
					124.767,78.56 				"/>
				<polygon fill-rule="evenodd" clip-rule="evenodd" fill="#A9D9DC" points="88.905,146.337 120.068,146.448 120.057,148.441 
					88.893,148.332 				"/>
				<polygon fill-rule="evenodd" clip-rule="evenodd" fill="#A9D9DC" points="124.775,146.337 145.003,146.448 144.995,148.441 
					124.767,148.332 				"/>
				<polygon fill-rule="evenodd" clip-rule="evenodd" fill="#A9D9DC" points="88.905,59.123 120.068,59.233 120.057,61.227 
					88.893,61.117 				"/>
				<polygon fill-rule="evenodd" clip-rule="evenodd" fill="#A9D9DC" points="88.905,128.895 120.068,129.004 120.057,130.999 
					88.893,130.888 				"/>
				<polygon fill-rule="evenodd" clip-rule="evenodd" fill="#A9D9DC" points="124.775,128.895 145.003,129.004 144.995,130.999 
					124.767,130.888 				"/>
				<polygon fill-rule="evenodd" clip-rule="evenodd" fill="#A9D9DC" points="88.905,94.009 120.068,94.119 120.057,96.113 
					88.893,96.002 				"/>
				<polygon fill-rule="evenodd" clip-rule="evenodd" fill="#A9D9DC" points="124.775,94.009 145.003,94.119 144.995,96.113 
					124.767,96.002 				"/>
				<polygon fill-rule="evenodd" clip-rule="evenodd" fill="#A9D9DC" points="88.905,163.781 120.068,163.89 120.057,165.884 
					88.893,165.774 				"/>
				<polygon fill-rule="evenodd" clip-rule="evenodd" fill="#A9D9DC" points="124.775,163.781 145.003,163.89 144.995,165.884 
					124.767,165.774 				"/>
				<polygon fill-rule="evenodd" clip-rule="evenodd" fill="#A9D9DC" points="84.479,50.764 76.269,50.846 76.272,52.337 
					84.482,52.254 				"/>
				<polygon fill-rule="evenodd" clip-rule="evenodd" fill="#A9D9DC" points="84.479,102.944 76.269,103.026 76.272,104.518 
					84.482,104.435 				"/>
				
					<rect x="51.82" y="112.362" transform="matrix(1 -0.0041 0.0041 1 -0.4582 0.2521)" fill-rule="evenodd" clip-rule="evenodd" fill="#A9D9DC" width="20.228" height="1.492"/>
				<polygon fill-rule="evenodd" clip-rule="evenodd" fill="#A9D9DC" points="84.479,76.854 76.269,76.936 76.272,78.427 
					84.482,78.345 				"/>
				
					<rect x="51.82" y="86.272" transform="matrix(1 -0.0041 0.0041 1 -0.3545 0.2534)" fill-rule="evenodd" clip-rule="evenodd" fill="#A9D9DC" width="20.228" height="1.491"/>
				<polygon fill-rule="evenodd" clip-rule="evenodd" fill="#A9D9DC" points="84.479,129.035 76.269,129.117 76.272,130.608 
					84.482,130.525 				"/>
				
					<rect x="51.82" y="138.453" transform="matrix(1 -0.0041 0.0041 1 -0.564 0.2523)" fill-rule="evenodd" clip-rule="evenodd" fill="#A9D9DC" width="20.228" height="1.491"/>
				<polygon fill-rule="evenodd" clip-rule="evenodd" fill="#A9D9DC" points="84.479,63.809 76.269,63.891 76.272,65.382 
					84.482,65.3 				"/>
				<polygon fill-rule="evenodd" clip-rule="evenodd" fill="#A9D9DC" points="84.479,115.989 76.269,116.071 76.272,117.563 
					84.482,117.48 				"/>
				
					<rect x="51.82" y="125.408" transform="matrix(1 -0.0041 0.0041 1 -0.5111 0.2522)" fill-rule="evenodd" clip-rule="evenodd" fill="#A9D9DC" width="20.228" height="1.491"/>
				<polygon fill-rule="evenodd" clip-rule="evenodd" fill="#A9D9DC" points="84.479,89.899 76.269,89.981 76.272,91.473 
					84.482,91.39 				"/>
				
					<rect x="51.82" y="99.317" transform="matrix(1 -0.0041 0.0041 1 -0.4053 0.252)" fill-rule="evenodd" clip-rule="evenodd" fill="#A9D9DC" width="20.228" height="1.491"/>
				<polygon fill-rule="evenodd" clip-rule="evenodd" fill="#A9D9DC" points="84.479,142.08 76.269,142.162 76.272,143.653 
					84.482,143.571 				"/>
				
					<rect x="51.82" y="151.498" transform="matrix(1 -0.0041 0.0041 1 -0.6169 0.2524)" fill-rule="evenodd" clip-rule="evenodd" fill="#A9D9DC" width="20.228" height="1.491"/>
				<polygon fill-rule="evenodd" clip-rule="evenodd" fill="#A9D9DC" points="84.479,54.025 76.269,54.107 76.272,55.599 
					84.482,55.516 				"/>
				<polygon fill-rule="evenodd" clip-rule="evenodd" fill="#A9D9DC" points="84.479,106.205 76.269,106.288 76.272,107.779 
					84.482,107.696 				"/>
				
					<rect x="51.82" y="115.624" transform="matrix(1 -0.0041 0.0041 1 -0.4714 0.2521)" fill-rule="evenodd" clip-rule="evenodd" fill="#A9D9DC" width="20.228" height="1.492"/>
				<polygon fill-rule="evenodd" clip-rule="evenodd" fill="#A9D9DC" points="84.479,80.115 76.269,80.197 76.272,81.688 
					84.482,81.606 				"/>
				
					<rect x="51.82" y="89.533" transform="matrix(1 -0.0041 0.0041 1 -0.3678 0.2534)" fill-rule="evenodd" clip-rule="evenodd" fill="#A9D9DC" width="20.228" height="1.491"/>
				<polygon fill-rule="evenodd" clip-rule="evenodd" fill="#A9D9DC" points="84.479,132.295 76.269,132.377 76.272,133.869 
					84.482,133.787 				"/>
				
					<rect x="51.82" y="141.714" transform="matrix(1 -0.0041 0.0041 1 -0.5772 0.2523)" fill-rule="evenodd" clip-rule="evenodd" fill="#A9D9DC" width="20.228" height="1.491"/>
				<polygon fill-rule="evenodd" clip-rule="evenodd" fill="#A9D9DC" points="84.479,67.07 76.269,67.152 76.272,68.644 
					84.482,68.561 				"/>
				<polygon fill-rule="evenodd" clip-rule="evenodd" fill="#A9D9DC" points="84.479,119.25 76.269,119.333 76.272,120.824 
					84.482,120.742 				"/>
				
					<rect x="51.82" y="128.669" transform="matrix(1 -0.0041 0.0041 1 -0.5305 0.2552)" fill-rule="evenodd" clip-rule="evenodd" fill="#A9D9DC" width="20.228" height="1.49"/>
				<polygon fill-rule="evenodd" clip-rule="evenodd" fill="#A9D9DC" points="84.479,93.16 76.269,93.242 76.272,94.734 
					84.482,94.651 				"/>
				
					<rect x="51.82" y="102.579" transform="matrix(1 -0.0041 0.0041 1 -0.4185 0.252)" fill-rule="evenodd" clip-rule="evenodd" fill="#A9D9DC" width="20.228" height="1.491"/>
				<polygon fill-rule="evenodd" clip-rule="evenodd" fill="#A9D9DC" points="84.479,145.34 76.269,145.423 76.272,146.915 
					84.482,146.832 				"/>
				
					<rect x="51.82" y="154.759" transform="matrix(1 -0.0041 0.0041 1 -0.6301 0.2524)" fill-rule="evenodd" clip-rule="evenodd" fill="#A9D9DC" width="20.228" height="1.491"/>
				<polygon fill-rule="evenodd" clip-rule="evenodd" fill="#A9D9DC" points="84.479,57.286 76.269,57.369 76.272,58.859 
					84.482,58.777 				"/>
				<polygon fill-rule="evenodd" clip-rule="evenodd" fill="#A9D9DC" points="84.479,109.466 76.269,109.549 76.272,111.04 
					84.482,110.958 				"/>
				
					<rect x="51.82" y="118.885" transform="matrix(1 -0.0041 0.0041 1 -0.4875 0.2537)" fill-rule="evenodd" clip-rule="evenodd" fill="#A9D9DC" width="20.228" height="1.491"/>
				<polygon fill-rule="evenodd" clip-rule="evenodd" fill="#A9D9DC" points="84.479,83.376 76.269,83.458 76.272,84.95 
					84.482,84.868 				"/>
				
					<rect x="51.82" y="92.795" transform="matrix(1 -0.0041 0.0041 1 -0.3811 0.2534)" fill-rule="evenodd" clip-rule="evenodd" fill="#A9D9DC" width="20.228" height="1.491"/>
				<polygon fill-rule="evenodd" clip-rule="evenodd" fill="#A9D9DC" points="84.479,135.557 76.269,135.639 76.272,137.13 
					84.482,137.048 				"/>
				
					<rect x="51.82" y="144.975" transform="matrix(1 -0.0041 0.0041 1 -0.5904 0.2524)" fill-rule="evenodd" clip-rule="evenodd" fill="#A9D9DC" width="20.228" height="1.491"/>
				<polygon fill-rule="evenodd" clip-rule="evenodd" fill="#A9D9DC" points="84.479,70.331 76.269,70.414 76.272,71.905 
					84.482,71.822 				"/>
				<polygon fill-rule="evenodd" clip-rule="evenodd" fill="#A9D9DC" points="84.479,122.512 76.269,122.594 76.272,124.085 
					84.482,124.002 				"/>
				
					<rect x="51.82" y="131.93" transform="matrix(1 -0.0041 0.0041 1 -0.5375 0.2523)" fill-rule="evenodd" clip-rule="evenodd" fill="#A9D9DC" width="20.228" height="1.491"/>
				<polygon fill-rule="evenodd" clip-rule="evenodd" fill="#A9D9DC" points="84.479,96.421 76.269,96.504 76.272,97.995 
					84.482,97.913 				"/>
				
					<rect x="51.82" y="105.84" transform="matrix(1 -0.0041 0.0041 1 -0.4317 0.252)" fill-rule="evenodd" clip-rule="evenodd" fill="#A9D9DC" width="20.228" height="1.491"/>
				<polygon fill-rule="evenodd" clip-rule="evenodd" fill="#A9D9DC" points="84.479,148.602 76.269,148.684 76.272,150.175 
					84.482,150.093 				"/>
				
					<rect x="51.82" y="158.02" transform="matrix(1 -0.0041 0.0041 1 -0.6433 0.2525)" fill-rule="evenodd" clip-rule="evenodd" fill="#A9D9DC" width="20.228" height="1.491"/>
				<polygon fill-rule="evenodd" clip-rule="evenodd" fill="#A9D9DC" points="84.479,60.547 76.269,60.63 76.272,62.121 
					84.482,62.039 				"/>
				<polygon fill-rule="evenodd" clip-rule="evenodd" fill="#A9D9DC" points="84.479,112.728 76.269,112.81 76.272,114.301 
					84.482,114.219 				"/>
				
					<rect x="51.82" y="122.146" transform="matrix(1 -0.0041 0.0041 1 -0.5008 0.2537)" fill-rule="evenodd" clip-rule="evenodd" fill="#A9D9DC" width="20.228" height="1.491"/>
				<polygon fill-rule="evenodd" clip-rule="evenodd" fill="#A9D9DC" points="84.479,86.638 76.269,86.72 76.272,88.211 
					84.482,88.129 				"/>
				
					<rect x="51.82" y="96.056" transform="matrix(1 -0.0041 0.0041 1 -0.392 0.252)" fill-rule="evenodd" clip-rule="evenodd" fill="#A9D9DC" width="20.228" height="1.491"/>
				<polygon fill-rule="evenodd" clip-rule="evenodd" fill="#A9D9DC" points="84.479,138.818 76.269,138.9 76.272,140.392 
					84.482,140.309 				"/>
				
					<rect x="51.82" y="148.237" transform="matrix(1 -0.0041 0.0041 1 -0.6037 0.2524)" fill-rule="evenodd" clip-rule="evenodd" fill="#A9D9DC" width="20.228" height="1.491"/>
				<polygon fill-rule="evenodd" clip-rule="evenodd" fill="#A9D9DC" points="84.479,73.592 76.269,73.675 76.272,75.166 
					84.482,75.083 				"/>
				<polygon fill-rule="evenodd" clip-rule="evenodd" fill="#A9D9DC" points="84.479,125.773 76.269,125.855 76.272,127.346 
					84.482,127.264 				"/>
				
					<rect x="51.82" y="135.191" transform="matrix(1 -0.0041 0.0041 1 -0.5573 0.2553)" fill-rule="evenodd" clip-rule="evenodd" fill="#A9D9DC" width="20.228" height="1.49"/>
				<polygon fill-rule="evenodd" clip-rule="evenodd" fill="#A9D9DC" points="84.479,99.683 76.269,99.765 76.272,101.256 
					84.482,101.174 				"/>
				
					<rect x="51.82" y="109.101" transform="matrix(1 -0.0041 0.0041 1 -0.445 0.2521)" fill-rule="evenodd" clip-rule="evenodd" fill="#A9D9DC" width="20.228" height="1.492"/>
				<polygon fill-rule="evenodd" clip-rule="evenodd" fill="#A9D9DC" points="84.479,151.863 76.269,151.946 76.272,153.437 
					84.482,153.354 				"/>
				
					<rect x="51.82" y="161.282" transform="matrix(1 -0.0041 0.0041 1 -0.6566 0.2525)" fill-rule="evenodd" clip-rule="evenodd" fill="#A9D9DC" width="20.228" height="1.491"/>
			</g>
			<path fill-rule="evenodd" clip-rule="evenodd" fill="#A9D9DC" d="M16.023,7.766H181.3v165.276H16.023V7.766L16.023,7.766z
				 M20.745,12.488V168.32h155.832V12.488H20.745z"/>
		</g>
	</g>
	
		<image display="none" overflow="visible" width="211" height="61" xlink:href="A5FDC16E.jpg"  transform="matrix(2.702 0 0 2.702 15.2129 7.6738)">
	</image>
</g>
<g id="Слой_2">
	<path fill-rule="evenodd" clip-rule="evenodd" fill="#8ACDCF" d="M287.555,64.858c-2.649,4.647-4.424,7.873-5.3,9.677l-4.169,8.927
		l-4.774,9.819c-0.254,0.56-1.564,3.497-3.942,8.783c-0.959,2.188-1.804,3.977-2.525,5.381c-0.413,0.847-0.685,1.437-0.846,1.773
		c-0.621,1.469-1.276,2.204-1.996,2.204c-0.734,0-1.453-0.769-2.122-2.283c-0.128-0.289-0.56-1.152-1.311-2.573l-0.941-1.963
		L242.014,66.68l-1.068,23.105c-0.097,1.901-0.144,5.686-0.144,11.386c0,5.478,1.932,8.511,5.781,9.102
		c1.898,0.302,2.842,0.749,2.842,1.356c0,0.686-0.448,1.039-1.358,1.039c-0.591,0-1.166-0.033-1.726-0.082
		c-3.464-0.271-6.161-0.398-8.046-0.398c-2.268,0-4.457,0.113-6.531,0.367c-0.623,0.065-1.102,0.113-1.438,0.113
		c-0.941,0-1.403-0.336-1.403-1.007c0-0.509,0.382-0.846,1.13-1.006c2.287-0.525,3.882-1.596,4.792-3.175
		c0.911-1.598,1.453-4.313,1.645-8.144l0.654-13.559c0.463-9.819,0.688-16.015,0.688-18.602c0-5.557-0.734-9.661-2.188-12.328
		c-1.47-2.667-3.913-4.311-7.331-4.935c-0.94-0.142-1.401-0.526-1.401-1.117c0-0.655,0.379-0.991,1.164-0.991
		c0.288,0,0.797,0.031,1.549,0.096c0.429,0.065,1.485,0.096,3.177,0.096c2.557,0,4.168-0.031,4.855-0.079
		c0.718-0.082,1.294-0.113,1.74-0.113c1.325,0,2.458,0.991,3.352,2.954l0.513,1.071l19.48,42.059l2.379,4.822
		c0.336,0.813,0.593,1.215,0.751,1.215c0.176,0,0.413-0.303,0.701-0.896l0.56-1.26l0.417-0.943l21.955-47.138
		c0.479-1.005,0.813-1.613,1.056-1.836c0.237-0.224,0.65-0.336,1.244-0.336c0.24,0,0.926,0.048,2.044,0.161
		c0.414,0.017,0.927,0.031,1.548,0.031c1.966,0,3.531-0.063,4.728-0.192c0.559-0.031,1.007-0.063,1.357-0.096
		c0.622-0.031,0.927,0.273,0.927,0.912c0,0.59-0.321,0.941-0.943,1.101l-2.012,0.512c-1.598,0.382-2.714,1.356-3.369,2.938
		c-0.639,1.58-0.958,4.167-0.958,7.76l0.288,11.289l0.91,25.454l0.237,5.907c0,2.381,0.433,4.073,1.31,5.11
		c0.865,1.022,2.444,1.709,4.743,2.061c1.645,0.238,2.475,0.639,2.475,1.213c0,0.59-0.573,0.895-1.725,0.895
		c-0.335,0-0.734-0.017-1.165-0.048l-3.626-0.353c-1.211-0.11-2.521-0.175-3.91-0.175c-0.976,0-2.491,0.065-4.567,0.209
		c-3.24,0.175-5.094,0.271-5.591,0.271c-0.909,0-1.355-0.288-1.355-0.847c0-0.495,0.4-0.846,1.181-1.071
		c1.853-0.495,3.099-1.308,3.722-2.427c0.622-1.133,0.941-3.097,0.941-5.907l-0.191-7.633L287.555,64.858L287.555,64.858z
		 M327.158,61.762v35.064c0,4.375,0.271,7.266,0.797,8.672c0.622,1.58,1.39,2.714,2.315,3.367c0.91,0.656,2.362,1.119,4.328,1.407
		c1.549,0.207,2.329,0.591,2.329,1.116c0,0.72-0.478,1.087-1.452,1.087c-0.464,0-1.068-0.048-1.789-0.161
		c-0.957-0.144-2.618-0.207-4.965-0.207l-6.786-0.113l-5.542,0.336c-0.909,0.096-1.659,0.144-2.252,0.144
		c-0.846,0-1.26-0.319-1.26-0.958c0-0.542,0.48-0.896,1.452-1.054c2.378-0.4,3.912-1.23,4.599-2.459
		c0.687-1.229,1.039-3.833,1.039-7.792V60.149c0-3.864-0.446-6.468-1.344-7.81c-0.876-1.34-2.777-2.25-5.684-2.712
		c-0.972-0.193-1.469-0.545-1.5-1.104c-0.031-0.67,0.415-1.006,1.358-1.006c0.254,0,0.526,0.017,0.845,0.048
		c2.285,0.288,5.302,0.432,9.088,0.432c2.299,0,4.277-0.048,5.938-0.161l3.146-0.271c0.591-0.031,0.973-0.048,1.164-0.048
		c0.848,0,1.263,0.289,1.263,0.879c0,0.544-0.398,0.958-1.212,1.231l-2.429,0.94C328.306,51.429,327.158,55.166,327.158,61.762
		L327.158,61.762z M358.548,99.415l0.051,1.644c0,3.737,0.351,5.958,1.068,6.644c0.72,0.687,3.066,1.037,7.028,1.037
		c5.842,0,10.904-0.687,15.199-2.076c4.297-1.388,7.043-3.209,8.224-5.478c0.431-0.845,0.879-1.26,1.311-1.26
		c0.494,0,0.735,0.302,0.701,0.926c-0.127,2.043-1.133,4.294-3.049,6.755c-2.683,3.37-7.042,5.062-13.079,5.062
		c-0.99,0-2.155-0.048-3.465-0.144l-5.063-0.384c-2.97-0.223-6.099-0.333-9.42-0.333c-3.831,0-7.058,0.189-9.646,0.573
		c-1.102,0.159-1.979,0.255-2.635,0.288c-0.78,0.031-1.164-0.24-1.164-0.815c0-0.495,0.43-0.862,1.277-1.102
		c2.17-0.653,3.624-1.61,4.358-2.89c0.751-1.261,1.118-3.401,1.118-6.403l0.048-2.156V57.322c0-4.167-1.678-6.579-5.03-7.28
		l-2.093-0.415c-0.75-0.145-1.116-0.449-1.116-0.896c0-0.687,0.528-1.023,1.579-1.023c0.72,0,1.711,0.065,2.955,0.192
		c2.107,0.192,4.502,0.288,7.138,0.288c2.875,0,5.478-0.064,7.811-0.208c1.181-0.046,1.85-0.08,2.012-0.08
		c0.748,0,1.118,0.224,1.118,0.687c0,0.672-0.448,1.119-1.358,1.325l-1.646,0.367c-2.825,0.686-4.232,3.497-4.232,8.4V99.415
		L358.548,99.415z M432.802,52.979c2.635,0,4.392,0.334,5.302,1.006c0.893,0.67,1.565,2.124,1.963,4.342
		c0.192,1.005,0.56,1.486,1.118,1.454c0.688-0.064,1.023-0.56,0.99-1.502c-0.031-0.463-0.111-1.229-0.255-2.282
		c-0.145-0.848-0.223-2.187-0.223-4.023c0-1.838-0.178-2.94-0.544-3.322c-0.353-0.367-1.389-0.559-3.114-0.559h-50.474
		c-1.071,0-1.775,0.224-2.092,0.67c-0.338,0.463-0.496,1.39-0.496,2.828c0,1.452-0.224,3.305-0.687,5.539
		c-0.368,1.741-0.56,2.94-0.56,3.593c0,0.814,0.288,1.231,0.845,1.263c0.56,0.031,0.977-0.559,1.265-1.773
		c0.622-2.794,1.498-4.709,2.65-5.715c1.133-1.008,2.969-1.517,5.491-1.517h12.424c1.182,0,1.949,0.159,2.269,0.461
		c0.334,0.322,0.494,1.04,0.494,2.158l0.048,1.229v46.466c0,2.636-0.415,4.457-1.263,5.463c-0.844,1.021-2.457,1.675-4.853,1.995
		c-1.04,0.127-1.549,0.432-1.549,0.91c0,0.671,0.464,1.007,1.405,1.007c0.319,0,1.357-0.096,3.146-0.288
		c0.91-0.096,2.012-0.144,3.337-0.144l3.655-0.048l3.417,0.048c2.222,0,3.642,0.048,4.232,0.144c1.149,0.192,1.916,0.288,2.3,0.288
		c0.878,0,1.31-0.336,1.31-0.991c0-0.495-0.542-0.845-1.644-1.023c-3.961-0.686-6.005-2.856-6.163-6.531l-0.049-1.819V56.316
		c0-1.469,0.176-2.395,0.542-2.777c0.351-0.37,1.229-0.56,2.603-0.56H432.802L432.802,52.979z M478.757,46.847
		c9.772,0,17.772,3.018,24.033,9.054c6.259,6.037,9.389,13.765,9.389,23.186c0,9.98-3.146,18.172-9.453,24.559
		c-6.309,6.403-14.371,9.596-24.207,9.596c-10.076,0-18.22-3.049-24.449-9.167c-6.226-6.114-9.342-14.13-9.342-24.063
		c0-4.296,0.816-8.559,2.461-12.791c1.629-4.232,3.848-7.76,6.627-10.604c2.922-2.986,6.644-5.365,11.13-7.122
		C469.448,47.726,474.047,46.847,478.757,46.847L478.757,46.847z M475.771,49.913c-7.249,0-12.997,2.443-17.26,7.313
		c-4.264,4.87-6.404,11.418-6.404,19.673c0,9.423,2.731,17.375,8.175,23.857c5.446,6.467,12.139,9.708,20.073,9.708
		c7.249,0,13.237-2.635,17.946-7.92c4.712-5.271,7.075-11.96,7.075-20.039c0-9.311-2.826-17.07-8.479-23.283
		C491.244,53.011,484.202,49.913,475.771,49.913L475.771,49.913z M576.625,66.104v39.138c0,3.514-0.08,5.669-0.238,6.418
		c-0.16,0.768-0.592,1.135-1.327,1.101c-0.463-0.031-0.813-0.175-1.067-0.413l-1.022-1.214l-39.361-45.062l-0.48-0.511
		c-0.175-0.192-0.398-0.288-0.639-0.288c-0.59,0-0.895,0.703-0.895,2.124v31.776l-0.049,1.963l0.146,3.322
		c0.207,2.06,0.732,3.48,1.58,4.263c0.83,0.783,2.475,1.358,4.935,1.742c1.022,0.127,1.531,0.512,1.531,1.196
		c0,0.607-0.333,0.912-0.989,0.912c-0.432,0-0.895-0.034-1.403-0.096c-0.337-0.048-1.695-0.144-4.073-0.256l-4.791-0.224
		l-2.251,0.082c-1.213,0-2.379,0.079-3.465,0.223c-0.814,0.111-1.39,0.175-1.742,0.175c-0.813,0-1.243-0.288-1.308-0.862
		c-0.031-0.463,0.415-0.847,1.325-1.15c2.635-0.911,4.406-2.124,5.333-3.626c0.926-1.514,1.39-3.975,1.39-7.344V67.621
		c0-5.413-0.861-9.661-2.588-12.774c-1.708-3.113-4.199-4.887-7.457-5.317c-0.846-0.129-1.261-0.48-1.261-1.053
		c0-0.576,0.351-0.864,1.038-0.864c0.144,0,0.399,0.017,0.751,0.048l1.915,0.048l3.147,0.097l0.748-0.048
		c0.752-0.031,1.327-0.048,1.742-0.048c0.783,0,1.564,0.449,2.348,1.359l42.969,48.703c0.688,0.766,1.118,1.149,1.311,1.116
		c0.303-0.031,0.478-0.334,0.509-0.893V74.822l0.049-6.323l-0.558-10.779c-0.319-2.65-1.087-4.535-2.332-5.636
		c-1.229-1.102-3.449-1.932-6.674-2.458c-0.912-0.161-1.358-0.528-1.358-1.15c0-0.576,0.446-0.864,1.358-0.864
		c0.413,0,1.069,0.048,1.978,0.127c2.173,0.24,5.063,0.353,8.704,0.353c1.949,0,3.497-0.081,4.646-0.24
		c1.006-0.159,1.773-0.24,2.316-0.24c0.813,0,1.245,0.336,1.308,1.006c0.033,0.415-0.286,0.72-0.94,0.912
		c-1.918,0.463-3.179,1.246-3.802,2.331c-0.604,1.085-0.91,3.129-0.91,6.116v5.045L576.625,66.104z"/>
	<path fill-rule="evenodd" clip-rule="evenodd" fill="#8ACDCF" d="M239.142,145.264c0,0.318,0,0.627,0,0.926
		c0.065,0.447,0.353,0.672,0.864,0.672c0.277,0,0.585-0.045,0.927-0.131v0.705c-0.106,0.043-0.262,0.102-0.459,0.176
		c-0.2,0.074-0.426,0.135-0.664,0.176c-0.246,0.043-0.538,0.064-0.876,0.064c-0.611,0-1.119-0.15-1.507-0.447
		c-0.388-0.299-0.628-0.801-0.713-1.504l-0.289,0.289c-1.348,1.342-2.929,2.014-4.746,2.014c-1.197,0-2.216-0.357-3.047-1.07
		c-0.836-0.713-1.252-1.656-1.252-2.83c0-1.256,0.374-2.242,1.118-2.957c0.746-0.713,2.356-1.262,4.827-1.646
		c1.385-0.232,2.26-0.445,2.62-0.639c0.513-0.277,0.769-0.777,0.769-1.502c0-1.193-0.326-2.115-0.975-2.764
		c-0.649-0.651-1.571-0.977-2.766-0.977c-1.022,0-1.919,0.277-2.685,0.832c-0.597,0.426-0.971,0.885-1.121,1.373h-0.351v-1.791
		c0.83-0.573,1.67-1.012,2.51-1.308c0.842-0.3,1.723-0.448,2.637-0.448c3.453,0,5.178,1.79,5.178,5.371V145.264L239.142,145.264z
		 M236.584,139.989l-1.118,0.256c-1.853,0.361-3.025,0.656-3.515,0.869c-1.28,0.572-1.919,1.496-1.919,2.758
		c0,0.986,0.271,1.732,0.815,2.232c0.546,0.508,1.317,0.758,2.319,0.758c0.403,0,0.851-0.123,1.341-0.369
		c0.49-0.248,0.896-0.533,1.214-0.852c0.236-0.213,0.405-0.373,0.512-0.484c0.234-0.236,0.351-0.395,0.351-0.48V139.989
		L236.584,139.989z M246.941,147.981l-1.276-0.129l-1.281,0.096v-15.183h10.166l-0.063,0.863l0.063,0.862
		c-0.618-0.107-1.52-0.191-2.701-0.258c-1.183-0.062-2.818-0.093-4.907-0.093V147.981L246.941,147.981z M269.093,146.334
		c-0.83,0.59-1.703,1.049-2.621,1.379c-0.916,0.326-1.873,0.49-2.875,0.49c-2.26,0-4.082-0.703-5.467-2.109
		c-1.386-1.406-2.078-3.324-2.078-5.752c0-2.326,0.618-4.189,1.854-5.596c1.322-1.513,3.144-2.27,5.466-2.27
		c1.896,0,3.422,0.628,4.572,1.891c1.279,1.392,1.917,3.385,1.917,5.975l-6.489-0.098h-4.507c0,1.908,0.438,3.459,1.311,4.645
		c0.98,1.318,2.388,1.973,4.219,1.973c0.98,0,1.93-0.25,2.846-0.758c0.618-0.336,1.249-0.809,1.887-1.416L269.093,146.334
		L269.093,146.334z M267.367,139.061c0-1.652-0.265-2.935-0.799-3.857c-0.66-1.155-1.726-1.736-3.197-1.736
		c-1.427,0-2.555,0.591-3.389,1.77c-0.744,1.05-1.118,2.322-1.118,3.824H267.367L267.367,139.061z M283.67,139.092v-6.455
		l1.278,0.128l1.279-0.097v15.313l-1.279-0.129l-1.278,0.096v-7.416l-3.869-0.096l-3.868,0.096v7.449l-1.277-0.129l-1.278,0.096
		v-15.311l1.278,0.128l1.277-0.097v6.424c0.576,0.045,1.285,0.08,2.128,0.113c0.839,0.031,1.422,0.049,1.74,0.049
		c0.854,0,1.619-0.018,2.305-0.049C282.785,139.172,283.307,139.137,283.67,139.092L283.67,139.092z M297.062,147.981l-1.276-0.129
		l-1.28,0.096v-13.745c-1.491,0-2.59,0.022-3.293,0.064c-0.702,0.042-1.437,0.116-2.204,0.224l0.096-0.862l-0.096-0.863h13.554
		l-0.064,0.863l0.064,0.862c-0.705-0.107-1.419-0.182-2.143-0.224c-0.725-0.042-1.843-0.064-3.357-0.064V147.981L297.062,147.981z
		 M315.987,135.897h-0.258c-0.127-0.172-0.265-0.357-0.415-0.56c-0.149-0.202-0.298-0.367-0.446-0.495
		c-0.362-0.404-0.832-0.719-1.406-0.943c-0.575-0.223-1.164-0.335-1.759-0.335c-1.747,0-3.123,0.669-4.125,2.013
		c-0.914,1.236-1.373,2.75-1.373,4.539c0,2.047,0.538,3.725,1.615,5.035c1.074,1.311,2.477,1.967,4.201,1.967
		c0.873,0,1.674-0.193,2.398-0.578c0.552-0.295,1.225-0.797,2.014-1.502l0.191,0.096l-0.158,1.471c-1.45,1.066-3.08,1.6-4.892,1.6
		c-2.6,0-4.636-0.756-6.105-2.271c-1.385-1.426-2.077-3.313-2.077-5.654c0-2.43,0.768-4.338,2.302-5.723
		c1.533-1.386,3.525-2.078,5.977-2.078c0.981,0,1.874,0.102,2.684,0.305c0.811,0.199,1.599,0.538,2.367,1.006L315.987,135.897
		L315.987,135.897z M326.022,147.981l-1.278-0.129l-1.279,0.096v-13.745c-1.491,0-2.589,0.022-3.292,0.064
		c-0.704,0.042-1.438,0.116-2.204,0.224l0.094-0.862l-0.094-0.863h13.551l-0.063,0.863l0.063,0.862
		c-0.701-0.107-1.415-0.182-2.142-0.224c-0.725-0.042-1.845-0.064-3.355-0.064V147.981L326.022,147.981z M334.303,132.765h6.137
		c1.64,0,2.897,0.267,3.771,0.799c1.022,0.618,1.535,1.587,1.535,2.908c0,0.874-0.309,1.599-0.926,2.175
		c-0.618,0.574-1.44,0.926-2.463,1.053c1.386,0.234,2.387,0.578,3.005,1.023c0.872,0.641,1.311,1.621,1.311,2.941
		c0,1.342-0.563,2.398-1.694,3.164c-1.022,0.703-2.302,1.057-3.835,1.057h-6.84V132.765L334.303,132.765z M336.858,146.637h3.323
		c1.046,0,1.904-0.262,2.576-0.787c0.67-0.523,1.005-1.248,1.005-2.17c0-1.156-0.298-1.986-0.895-2.488
		c-0.598-0.508-1.492-0.756-2.687-0.756h-3.323V146.637L336.858,146.637z M336.858,139.254h3.005c0.979,0,1.738-0.227,2.269-0.672
		c0.534-0.449,0.801-1.129,0.801-2.047c0-0.873-0.267-1.514-0.801-1.918c-0.53-0.404-1.244-0.607-2.142-0.607h-3.132V139.254
		L336.858,139.254z M357.059,132.477c2.195,0,3.981,0.709,5.354,2.126c1.377,1.417,2.061,3.308,2.061,5.675
		c0,2.172-0.669,4.004-2.011,5.496c-1.472,1.619-3.463,2.43-5.979,2.43c-2.194,0-3.999-0.73-5.418-2.189
		c-1.417-1.459-2.124-3.404-2.124-5.834c0-2.26,0.771-4.107,2.315-5.546C352.803,133.197,354.738,132.477,357.059,132.477
		L357.059,132.477z M351.755,140.661c0,1.811,0.372,3.303,1.118,4.473c0.873,1.387,2.161,2.08,3.868,2.08
		c1.682,0,2.972-0.863,3.866-2.59c0.704-1.344,1.055-2.846,1.055-4.508c0-1.746-0.317-3.207-0.958-4.377
		c-0.831-1.514-2.055-2.271-3.675-2.271c-1.878,0-3.262,0.766-4.156,2.302C352.127,137.028,351.755,138.657,351.755,140.661
		L351.755,140.661z M387.234,139.092v-6.455l1.279,0.128l1.279-0.097v15.313l-1.279-0.129l-1.279,0.096v-7.416l-3.868-0.096
		l-3.866,0.096v7.449l-1.279-0.129l-1.277,0.096v-15.311l1.277,0.128l1.279-0.097v6.424c0.573,0.045,1.283,0.08,2.126,0.113
		c0.842,0.031,1.421,0.049,1.74,0.049c0.854,0,1.619-0.018,2.304-0.049C386.35,139.172,386.872,139.137,387.234,139.092
		L387.234,139.092z M406.413,146.334c-0.831,0.59-1.705,1.049-2.621,1.379c-0.916,0.326-1.876,0.49-2.878,0.49
		c-2.257,0-4.079-0.703-5.465-2.109c-1.385-1.406-2.077-3.324-2.077-5.752c0-2.326,0.616-4.189,1.854-5.596
		c1.321-1.513,3.144-2.27,5.466-2.27c1.896,0,3.42,0.628,4.571,1.891c1.279,1.392,1.918,3.385,1.918,5.975l-6.489-0.098h-4.507
		c0,1.908,0.436,3.459,1.31,4.645c0.981,1.318,2.387,1.973,4.222,1.973c0.979,0,1.928-0.25,2.844-0.758
		c0.618-0.336,1.245-0.809,1.887-1.416L406.413,146.334L406.413,146.334z M404.687,139.061c0-1.652-0.267-2.935-0.799-3.857
		c-0.661-1.155-1.726-1.736-3.196-1.736c-1.428,0-2.557,0.591-3.387,1.77c-0.747,1.05-1.12,2.322-1.12,3.824H404.687
		L404.687,139.061z M409.643,146.413c1.044-2.236,2.055-4.496,3.035-6.775c1.216-2.834,2.132-5.146,2.749-6.938l0.959,0.097
		l0.992-0.097c0.532,1.43,1.347,3.502,2.445,6.219c1.098,2.717,2.134,5.213,3.114,7.494h1.184l-0.063,1.199c0,0.193,0,0.4,0,0.619
		c0,0.213,0.021,0.408,0.063,0.58h-0.223c-0.532-0.422-1.177-0.684-1.935-0.793c-0.755-0.113-1.869-0.166-3.341-0.166h-4.795
		c-1.554,0-2.68,0.043-3.372,0.133c-0.692,0.086-1.316,0.361-1.869,0.826h-0.257c0.044-0.107,0.064-0.299,0.064-0.564
		c0-0.271,0.011-0.486,0.033-0.635l-0.098-1.199H409.643L409.643,146.413z M420.317,146.413c-0.426-1.32-1.039-2.967-1.838-4.939
		c-0.8-1.969-1.613-3.902-2.446-5.8h-0.223c-0.021,0-0.267,0.576-0.734,1.726c-0.854,2.068-1.417,3.441-1.694,4.123
		c-0.661,1.643-1.279,3.271-1.855,4.891H420.317L420.317,146.413z M426.679,132.765h6.137c1.641,0,2.899,0.267,3.772,0.799
		c1.023,0.618,1.534,1.587,1.534,2.908c0,0.874-0.309,1.599-0.926,2.175c-0.618,0.574-1.44,0.926-2.463,1.053
		c1.386,0.234,2.387,0.578,3.005,1.023c0.874,0.641,1.311,1.621,1.311,2.941c0,1.342-0.563,2.398-1.694,3.164
		c-1.022,0.703-2.302,1.057-3.836,1.057h-6.84V132.765L426.679,132.765z M429.235,146.637h3.326c1.043,0,1.9-0.262,2.572-0.787
		c0.671-0.523,1.006-1.248,1.006-2.17c0-1.156-0.298-1.986-0.895-2.488c-0.597-0.508-1.492-0.756-2.684-0.756h-3.326V146.637
		L429.235,146.637z M429.235,139.254h3.005c0.98,0,1.738-0.227,2.271-0.672c0.532-0.449,0.799-1.129,0.799-2.047
		c0-0.873-0.267-1.514-0.799-1.918s-1.246-0.607-2.142-0.607h-3.134V139.254L429.235,139.254z M454.232,132.637h1.279v15.344
		l-1.279-0.129l-1.279,0.096v-11.125c-1.427,1.6-2.472,2.793-3.132,3.582c-0.98,1.15-2.013,2.414-3.101,3.785
		c-1.087,1.377-2.013,2.627-2.781,3.758h-1.279v-15.279c0.106,0.021,0.343,0.042,0.703,0.064c0.363,0.021,0.556,0.032,0.576,0.032
		c0.192,0,0.395,0,0.607,0c0.298-0.059,0.521-0.103,0.672-0.128v11.156c1.386-1.498,2.897-3.262,4.538-5.291
		C451.399,136.472,452.889,134.517,454.232,132.637L454.232,132.637z M469.511,132.765l1.278-0.128v5.625
		c0,0.213,0.007,0.426,0.018,0.639c0.01,0.213,0.059,0.354,0.144,0.416c0.106,0.064,0.542-0.289,1.311-1.061
		c0.467-0.469,0.745-0.75,0.83-0.836l1.982-2.024l2.493-2.759l1.28,0.128l1.245-0.128v0.224c-1.472,1.241-2.75,2.343-3.835,3.308
		c-1.3,1.135-2.366,2.098-3.197,2.893l7.512,8.758v0.162l-1.566-0.129l-1.599,0.096c-0.553-0.725-1.235-1.566-2.046-2.525
		c-0.616-0.725-1.971-2.281-4.06-4.666c-0.298-0.342-0.457-0.512-0.48-0.512c-0.02,0-0.031,0.393-0.031,1.182v6.555l-1.278-0.129
		l-1.279,0.096v-6.521c0-0.574,0-0.916,0-1.021c0-0.086-0.021-0.127-0.063-0.127s-0.201,0.158-0.479,0.479
		c-2.056,2.363-3.398,3.91-4.01,4.635c-0.896,1.066-1.584,1.918-2.074,2.557l-1.592-0.096l-1.561,0.096v-0.16l7.512-8.727
		c-1.3-1.236-2.676-2.473-4.123-3.707c-0.98-0.81-1.951-1.629-2.909-2.462v-0.224l1.245,0.097l1.28-0.128l2.492,2.759l1.981,2.024
		c0.384,0.391,0.768,0.773,1.151,1.156c0.575,0.561,0.905,0.805,0.99,0.74c0.086-0.063,0.135-0.225,0.145-0.48
		c0.01-0.254,0.015-0.445,0.015-0.574v-5.594L469.511,132.765L469.511,132.765z M495.083,132.637h1.278v15.344l-1.278-0.129
		l-1.278,0.096v-11.125c-1.429,1.6-2.473,2.793-3.132,3.582c-0.981,1.15-2.017,2.414-3.104,3.785
		c-1.084,1.377-2.014,2.627-2.779,3.758h-1.278v-15.279c0.105,0.021,0.34,0.042,0.703,0.064c0.363,0.021,0.556,0.032,0.575,0.032
		c0.192,0,0.396,0,0.607,0c0.299-0.059,0.522-0.103,0.673-0.128v11.156c1.383-1.498,2.897-3.262,4.538-5.291
		C492.248,136.472,493.74,134.517,495.083,132.637L495.083,132.637z M502.082,132.7h0.864c1.107,2.201,2.27,4.391,3.484,6.568
		c1.214,2.182,2.279,3.965,3.197,5.355c1.873-3.25,3.993-7.225,6.358-11.924h0.865c0.254,2.243,0.478,4.162,0.669,5.75
		c0.192,1.594,0.4,3.313,0.624,5.156c0.226,1.85,0.4,3.309,0.527,4.375l-1.405-0.129l-1.407,0.129c0-2.053-0.127-4.242-0.384-6.576
		c-0.064-0.617-0.224-1.91-0.479-3.879c-1.96,3.186-3.88,6.67-5.753,10.455h-0.736c-1.002-1.945-1.938-3.719-2.813-5.324
		c-1.021-1.816-2.023-3.525-3.005-5.131c-0.254,1.834-0.5,3.693-0.734,5.58c-0.233,1.885-0.35,3.498-0.35,4.842
		c-0.278-0.043-0.545-0.074-0.802-0.096l-0.895,0.129c0.321-1.369,0.694-3.629,1.12-6.795
		C501.155,140.165,501.506,137.336,502.082,132.7L502.082,132.7z M529.381,132.477c2.194,0,3.979,0.709,5.354,2.126
		c1.376,1.417,2.062,3.308,2.062,5.675c0,2.172-0.672,4.004-2.013,5.496c-1.472,1.619-3.465,2.43-5.979,2.43
		c-2.194,0-4-0.73-5.417-2.189c-1.419-1.459-2.126-3.404-2.126-5.834c0-2.26,0.772-4.107,2.316-5.546
		C525.124,133.197,527.059,132.477,529.381,132.477L529.381,132.477z M524.075,140.661c0,1.811,0.372,3.303,1.118,4.473
		c0.874,1.387,2.163,2.08,3.868,2.08c1.684,0,2.974-0.863,3.866-2.59c0.703-1.344,1.056-2.846,1.056-4.508
		c0-1.746-0.319-3.207-0.96-4.377c-0.83-1.514-2.056-2.271-3.676-2.271c-1.874,0-3.26,0.766-4.154,2.302
		C524.447,137.028,524.075,138.657,524.075,140.661L524.075,140.661z M551.628,135.897h-0.258c-0.127-0.172-0.264-0.357-0.415-0.56
		c-0.147-0.202-0.298-0.367-0.446-0.495c-0.362-0.404-0.83-0.719-1.405-0.943c-0.576-0.223-1.163-0.335-1.76-0.335
		c-1.746,0-3.121,0.669-4.123,2.013c-0.916,1.236-1.375,2.75-1.375,4.539c0,2.047,0.539,3.725,1.615,5.035
		c1.077,1.311,2.477,1.967,4.204,1.967c0.872,0,1.672-0.193,2.396-0.578c0.556-0.295,1.228-0.797,2.014-1.502l0.192,0.096
		l-0.158,1.471c-1.451,1.066-3.08,1.6-4.892,1.6c-2.601,0-4.635-0.756-6.104-2.271c-1.386-1.426-2.079-3.313-2.079-5.654
		c0-2.43,0.768-4.338,2.302-5.723c1.533-1.386,3.526-2.078,5.978-2.078c0.98,0,1.876,0.102,2.686,0.305
		c0.81,0.199,1.599,0.538,2.364,1.006L551.628,135.897L551.628,135.897z M561.665,147.981l-1.28-0.129l-1.276,0.096v-13.745
		c-1.492,0-2.59,0.022-3.293,0.064s-1.44,0.116-2.206,0.224l0.097-0.862l-0.097-0.863h13.553l-0.064,0.863l0.064,0.862
		c-0.703-0.107-1.417-0.182-2.14-0.224c-0.725-0.042-1.846-0.064-3.357-0.064V147.981L561.665,147.981z M581.516,132.637h1.277
		v15.344l-1.277-0.129l-1.278,0.096v-11.125c-1.43,1.6-2.473,2.793-3.133,3.582c-0.98,1.15-2.016,2.414-3.103,3.785
		c-1.085,1.377-2.013,2.627-2.779,3.758h-1.279v-15.279c0.106,0.021,0.341,0.042,0.703,0.064c0.364,0.021,0.556,0.032,0.576,0.032
		c0.189,0,0.395,0,0.606,0c0.3-0.059,0.522-0.103,0.673-0.128v11.156c1.383-1.498,2.896-3.262,4.538-5.291
		C578.681,136.472,580.172,134.517,581.516,132.637z"/>
</g>
</svg>
